<svg width="176" height="39" viewBox="0 0 176 39" fill="none" xmlns="http://www.w3.org/2000/svg">
<g clip-path="url(#clip0_18_431)">
<path d="M73.0781 37.0231C73.0116 37.6286 72.7747 38.1095 72.3674 38.4658C71.9601 38.822 71.4418 39.0001 70.8125 39.0001C70.0763 39.0001 69.4914 38.7543 69.0581 38.2627C68.6246 37.7711 68.408 37.1062 68.408 36.2678C68.408 35.4129 68.6246 34.7343 69.0581 34.232C69.4914 33.7297 70.0763 33.4786 70.8125 33.4786C71.4347 33.4786 71.95 33.6466 72.3585 33.9826C72.767 34.3187 73.0069 34.774 73.0781 35.3488H71.9845C71.9488 35.0661 71.8269 34.8417 71.6188 34.6755C71.4107 34.5093 71.1461 34.4262 70.8251 34.4262C70.4184 34.4262 70.0996 34.5882 69.869 34.9124C69.6383 35.2366 69.523 35.686 69.523 36.2607C69.523 36.8212 69.6377 37.26 69.8672 37.577C70.0967 37.894 70.416 38.0526 70.8251 38.0526C71.1461 38.0526 71.4107 37.9599 71.6188 37.7747C71.8269 37.5895 71.9488 37.3389 71.9845 37.0231H73.0781Z" fill="#FF0000"/>
<path d="M77.5593 38.8575V33.6209H78.653V37.9277H81.257V38.8575L77.5593 38.8575Z" fill="#FF0000"/>
<path d="M87.1063 33.6209H88.3745L90.2269 38.8575H89.0668L88.7126 37.7924H86.7265L86.3837 38.8575H85.2539L87.1063 33.6209ZM87.0303 36.8911H88.4204L87.7248 34.7858H87.7259L87.0303 36.8911Z" fill="#FF0000"/>
<path d="M97.4177 35.1919C97.3987 34.9426 97.2896 34.7449 97.0901 34.5988C96.8908 34.4528 96.6309 34.3797 96.3105 34.3797C96.0328 34.3797 95.8155 34.4408 95.6589 34.5632C95.5023 34.6855 95.4239 34.8558 95.4239 35.0744C95.4239 35.2311 95.5059 35.3522 95.6697 35.4377C95.8311 35.5232 96.1744 35.6242 96.6992 35.7405C97.4614 35.9115 97.9707 36.1087 98.2272 36.3319C98.4839 36.5527 98.6125 36.9077 98.6125 37.397C98.6125 37.8886 98.4189 38.2787 98.0319 38.5672C97.6449 38.8557 97.1214 39 96.4614 39C95.7988 39 95.2812 38.8468 94.9085 38.5405C94.5357 38.2341 94.3362 37.7983 94.3102 37.2331H95.3646C95.3764 37.511 95.4774 37.7247 95.6673 37.8743C95.8572 38.0239 96.1219 38.0987 96.4614 38.0987C96.8104 38.0987 97.0827 38.0423 97.2787 37.9295C97.4746 37.8168 97.5725 37.6606 97.5725 37.4611C97.5725 37.2639 97.5018 37.1191 97.3606 37.0265C97.223 36.9339 96.9287 36.8377 96.4778 36.7379C95.6471 36.5527 95.0918 36.352 94.8118 36.1359C94.5336 35.9222 94.3947 35.5886 94.3947 35.1349C94.3947 34.6267 94.5787 34.2235 94.9467 33.9255C95.3146 33.6275 95.8121 33.4785 96.4388 33.4785C97.0252 33.4785 97.5024 33.6329 97.8703 33.9416C98.2383 34.2502 98.4424 34.667 98.4828 35.1919L97.4177 35.1919Z" fill="#FF0000"/>
<path d="M103.055 33.6209H104.148V35.5838H106.197V33.6209H107.29V38.8575H106.197V36.485H104.148V38.8575H103.055V33.6209Z" fill="#FF0000"/>
<path d="M84.1737 0L84.1361 5.96931L77.925 6.02809" fill="#FF0000"/>
<path d="M84.0584 18.3211L84.0777 15.2549L80.7633 12.1315L76.7498 12.1062L79.8709 15.194L68.498 15.1225L84.0584 18.3211Z" fill="#FF0000"/>
<path d="M68.5034 14.2754L77.6202 6.23151L75.3287 10.8911L68.5034 14.2754Z" fill="#FF0000"/>
<path d="M4.6997 4.11813L7.1279 13.0281L9.53657 4.11813H14.0601L9.7716 17.8258H4.34728L0 4.11813H4.6997Z" fill="white"/>
<path d="M26.082 4.11813H31.9372L35.9124 17.8258H31.4085L30.8993 15.75H27.0612L26.5324 17.8258H22.0481L26.082 4.11813ZM30.0573 12.4014L28.9998 8.15203H28.9803L27.9032 12.4014H30.0573Z" fill="white"/>
<path d="M46.426 4.11813H50.2642L54.6898 10.5999V4.11813H58.9587V17.8258H55.2576L50.695 11.5007V17.8258H46.426L46.426 4.11813Z" fill="white"/>
<path d="M94.9268 11.8923V4.11813H99.1957V11.8923C99.1957 13.0672 99.9594 13.8701 101.095 13.8701C102.231 13.8701 103.014 13.0672 103.014 11.8923V4.11813H107.283V11.8923C107.283 15.5934 104.777 18.1 101.095 18.1C97.4138 18.1 94.9268 15.5934 94.9268 11.8923Z" fill="white"/>
<path d="M120.793 4.11813H126.648L130.624 17.8258H126.12L125.611 15.75H121.772L121.244 17.8258H116.759L120.793 4.11813ZM124.769 12.4014L123.711 8.15203H123.691L122.614 12.4014H124.769Z" fill="white"/>
<path d="M141.137 4.11813H146.64C149.812 4.11813 151.986 6.17425 151.986 9.05288C151.986 10.6391 151.222 11.951 149.949 12.7735L152.75 17.8258H147.854L145.7 13.6939H145.406V17.8258H141.137V4.11813ZM146.346 10.404C147.149 10.404 147.717 9.8949 147.717 9.15075C147.717 8.4066 147.149 7.91713 146.385 7.91713H145.406V10.404H146.346Z" fill="white"/>
<path d="M163.283 4.11813H168.707C172.624 4.11813 175.698 7.11428 175.698 10.9328C175.698 14.7905 172.624 17.8258 168.707 17.8258H163.283V4.11813ZM171.331 10.9523C171.331 9.20956 170.176 8.07381 168.707 8.07381H167.552V13.8701H168.707C170.176 13.8701 171.331 12.7148 171.331 10.9523Z" fill="white"/>
</g>
<defs>
<clipPath id="clip0_18_431">
<rect width="175.698" height="39" fill="white"/>
</clipPath>
</defs>
</svg>
