<svg width="27" height="27" viewBox="0 0 27 27" fill="none" xmlns="http://www.w3.org/2000/svg">
<g clip-path="url(#clip0_10_780)">
<path d="M22.5627 4.63381C20.9056 3.87344 19.1285 3.31323 17.2705 2.99237C17.2367 2.98618 17.2029 3.00166 17.1854 3.03261C16.9569 3.43909 16.7037 3.96938 16.5265 4.38619C14.5281 4.087 12.5399 4.087 10.5825 4.38619C10.4051 3.96012 10.1428 3.43909 9.91323 3.03261C9.8958 3.00269 9.862 2.98721 9.82817 2.99237C7.97118 3.3122 6.19414 3.87241 4.53596 4.63381C4.5216 4.64 4.5093 4.65032 4.50113 4.66373C1.13045 9.69945 0.207083 14.6114 0.660057 19.4625C0.662107 19.4862 0.67543 19.5089 0.693877 19.5233C2.91776 21.1565 5.07196 22.148 7.18616 22.8051C7.22 22.8155 7.25585 22.8031 7.27738 22.7752C7.7775 22.0923 8.22331 21.3721 8.60554 20.6148C8.6281 20.5705 8.60657 20.5179 8.56046 20.5003C7.85334 20.2321 7.18001 19.905 6.53232 19.5336C6.48109 19.5037 6.47699 19.4304 6.52412 19.3954C6.66042 19.2932 6.79675 19.187 6.9269 19.0797C6.95044 19.0601 6.98325 19.0559 7.01094 19.0683C11.266 21.011 15.8726 21.011 20.0775 19.0683C20.1052 19.0549 20.138 19.059 20.1625 19.0786C20.2927 19.1859 20.429 19.2932 20.5663 19.3954C20.6135 19.4304 20.6104 19.5037 20.5592 19.5336C19.9115 19.9123 19.2382 20.2321 18.53 20.4993C18.4839 20.5168 18.4634 20.5705 18.4859 20.6148C18.8764 21.3711 19.3222 22.0912 19.8131 22.7742C19.8336 22.8031 19.8705 22.8155 19.9043 22.8051C22.0288 22.148 24.1829 21.1565 26.4068 19.5233C26.4263 19.5089 26.4386 19.4872 26.4407 19.4635C26.9828 13.8551 25.5326 8.98346 22.5965 4.66475C22.5893 4.65032 22.5771 4.64 22.5627 4.63381ZM9.24097 16.5087C7.9599 16.5087 6.90434 15.3326 6.90434 13.8882C6.90434 12.4438 7.93943 11.2677 9.24097 11.2677C10.5527 11.2677 11.5981 12.4541 11.5776 13.8882C11.5776 15.3326 10.5425 16.5087 9.24097 16.5087ZM17.8803 16.5087C16.5992 16.5087 15.5437 15.3326 15.5437 13.8882C15.5437 12.4438 16.5787 11.2677 17.8803 11.2677C19.192 11.2677 20.2374 12.4541 20.2169 13.8882C20.2169 15.3326 19.192 16.5087 17.8803 16.5087Z" fill="#FF0019"/>
</g>
<defs>
<clipPath id="clip0_10_780">
<rect width="26" height="26" fill="white" transform="translate(0.552612 0.131958)"/>
</clipPath>
</defs>
</svg>
