<svg width="27" height="27" viewBox="0 0 27 27" fill="none" xmlns="http://www.w3.org/2000/svg">
<g clip-path="url(#clip0_10_777)">
<path d="M13.4474 2.47297C16.9208 2.47297 17.3322 2.48821 18.6982 2.54915C19.9677 2.605 20.6532 2.81829 21.1103 2.99602C21.7146 3.22961 22.1513 3.51399 22.6032 3.96594C23.0603 4.42297 23.3396 4.85461 23.5732 5.45891C23.7509 5.91594 23.9642 6.60657 24.02 7.87102C24.081 9.24211 24.0962 9.65344 24.0962 13.1218C24.0962 16.5952 24.081 17.0066 24.02 18.3726C23.9642 19.6421 23.7509 20.3277 23.5732 20.7847C23.3396 21.389 23.0552 21.8257 22.6032 22.2777C22.1462 22.7347 21.7146 23.014 21.1103 23.2476C20.6532 23.4253 19.9626 23.6386 18.6982 23.6945C17.3271 23.7554 16.9157 23.7706 13.4474 23.7706C9.97395 23.7706 9.56262 23.7554 8.19661 23.6945C6.92708 23.6386 6.24153 23.4253 5.7845 23.2476C5.1802 23.014 4.74348 22.7296 4.29153 22.2777C3.8345 21.8206 3.5552 21.389 3.32161 20.7847C3.14387 20.3277 2.93059 19.637 2.87473 18.3726C2.81379 17.0015 2.79856 16.5902 2.79856 13.1218C2.79856 9.64837 2.81379 9.23704 2.87473 7.87102C2.93059 6.60149 3.14387 5.91594 3.32161 5.45891C3.5552 4.85461 3.83958 4.4179 4.29153 3.96594C4.74856 3.50891 5.1802 3.22961 5.7845 2.99602C6.24153 2.81829 6.93215 2.605 8.19661 2.54915C9.56262 2.48821 9.97395 2.47297 13.4474 2.47297ZM13.4474 0.131958C9.91809 0.131958 9.47629 0.147192 8.08997 0.20813C6.70872 0.269067 5.75911 0.492505 4.93645 0.812427C4.07825 1.14758 3.35208 1.58938 2.63098 2.31555C1.90481 3.03665 1.46301 3.76282 1.12786 4.61594C0.807935 5.44368 0.584497 6.38821 0.52356 7.76946C0.462622 9.16086 0.447388 9.60266 0.447388 13.132C0.447388 16.6613 0.462622 17.1031 0.52356 18.4894C0.584497 19.8706 0.807935 20.8202 1.12786 21.6429C1.46301 22.5011 1.90481 23.2273 2.63098 23.9484C3.35208 24.6695 4.07825 25.1163 4.93137 25.4464C5.75911 25.7663 6.70364 25.9898 8.08489 26.0507C9.47122 26.1116 9.91301 26.1269 13.4423 26.1269C16.9716 26.1269 17.4134 26.1116 18.7997 26.0507C20.181 25.9898 21.1306 25.7663 21.9532 25.4464C22.8064 25.1163 23.5325 24.6695 24.2536 23.9484C24.9747 23.2273 25.4216 22.5011 25.7517 21.648C26.0716 20.8202 26.295 19.8757 26.356 18.4945C26.4169 17.1081 26.4322 16.6663 26.4322 13.137C26.4322 9.60774 26.4169 9.16594 26.356 7.77961C26.295 6.39836 26.0716 5.44876 25.7517 4.6261C25.4318 3.76282 24.99 3.03665 24.2638 2.31555C23.5427 1.59446 22.8165 1.14758 21.9634 0.817505C21.1357 0.497583 20.1911 0.274146 18.8099 0.213208C17.4185 0.147192 16.9767 0.131958 13.4474 0.131958Z" fill="#FF0019"/>
<path d="M13.4474 6.45422C9.76067 6.45422 6.76965 9.44524 6.76965 13.132C6.76965 16.8187 9.76067 19.8097 13.4474 19.8097C17.1341 19.8097 20.1251 16.8187 20.1251 13.132C20.1251 9.44524 17.1341 6.45422 13.4474 6.45422ZM13.4474 17.4636C11.0556 17.4636 9.11575 15.5238 9.11575 13.132C9.11575 10.7402 11.0556 8.80032 13.4474 8.80032C15.8392 8.80032 17.779 10.7402 17.779 13.132C17.779 15.5238 15.8392 17.4636 13.4474 17.4636Z" fill="#FF0019"/>
<path d="M21.9482 6.19009C21.9482 7.05337 21.2474 7.74908 20.3892 7.74908C19.5259 7.74908 18.8302 7.04829 18.8302 6.19009C18.8302 5.32681 19.531 4.6311 20.3892 4.6311C21.2474 4.6311 21.9482 5.33189 21.9482 6.19009Z" fill="#FF0019"/>
</g>
<defs>
<clipPath id="clip0_10_777">
<rect width="26" height="26" fill="white" transform="translate(0.447388 0.131958)"/>
</clipPath>
</defs>
</svg>
