<svg width="27" height="27" viewBox="0 0 27 27" fill="none" xmlns="http://www.w3.org/2000/svg">
<g clip-path="url(#clip0_10_778)">
<path d="M19.311 0.131958H14.9292V17.8421C14.9292 19.9523 13.244 21.6856 11.1467 21.6856C9.04945 21.6856 7.36417 19.9523 7.36417 17.8421C7.36417 15.7697 9.01201 14.074 11.0344 13.9986V9.55226C6.5777 9.62759 2.98242 13.2827 2.98242 17.8421C2.98242 22.4392 6.6526 26.132 11.1842 26.132C15.7157 26.132 19.3859 22.4015 19.3859 17.8421V8.76092C21.0337 9.96675 23.056 10.6827 25.1908 10.7204V6.27399C21.8951 6.16095 19.311 3.4479 19.311 0.131958Z" fill="#FF0019"/>
</g>
<defs>
<clipPath id="clip0_10_778">
<rect width="26" height="26" fill="white" transform="translate(0.815796 0.131958)"/>
</clipPath>
</defs>
</svg>
