<svg width="27" height="27" viewBox="0 0 27 27" fill="none" xmlns="http://www.w3.org/2000/svg">
<g clip-path="url(#clip0_10_779)">
<path d="M25.9252 7.93203C25.9252 7.93203 25.6713 6.13945 24.8893 5.35234C23.899 4.31641 22.792 4.31133 22.2842 4.25039C18.6483 3.98633 13.1893 3.98633 13.1893 3.98633H13.1791C13.1791 3.98633 7.72014 3.98633 4.0842 4.25039C3.57639 4.31133 2.46936 4.31641 1.47913 5.35234C0.697095 6.13945 0.448267 7.93203 0.448267 7.93203C0.448267 7.93203 0.184204 10.0395 0.184204 12.1418V14.1121C0.184204 16.2145 0.443188 18.3219 0.443188 18.3219C0.443188 18.3219 0.697095 20.1145 1.47405 20.9016C2.46428 21.9375 3.76428 21.902 4.34319 22.0137C6.42522 22.2117 13.1842 22.2727 13.1842 22.2727C13.1842 22.2727 18.6483 22.2625 22.2842 22.0035C22.792 21.9426 23.899 21.9375 24.8893 20.9016C25.6713 20.1145 25.9252 18.3219 25.9252 18.3219C25.9252 18.3219 26.1842 16.2195 26.1842 14.1121V12.1418C26.1842 10.0395 25.9252 7.93203 25.9252 7.93203ZM10.4979 16.5039V9.19648L17.5209 12.8629L10.4979 16.5039Z" fill="#FF0019"/>
</g>
<defs>
<clipPath id="clip0_10_779">
<rect width="26" height="26" fill="white" transform="translate(0.184204 0.131958)"/>
</clipPath>
</defs>
</svg>
